<svg width="18" height="18" viewBox="0 0 18 18" fill="none" xmlns="http://www.w3.org/2000/svg">
<circle cx="9" cy="9" r="9" fill="#D3D4DA"/>
<path fill-rule="evenodd" clip-rule="evenodd" d="M12.7123 6.34836C13.0052 6.05547 13.0052 5.5806 12.7123 5.2877C12.4194 4.99481 11.9446 4.99481 11.6517 5.28771L9 7.93937L6.34833 5.2877C6.05544 4.99481 5.58057 4.99481 5.28767 5.2877C4.99478 5.5806 4.99478 6.05547 5.28767 6.34836L7.93934 9.00003L5.28771 11.6517C4.99481 11.9446 4.99481 12.4194 5.28771 12.7123C5.5806 13.0052 6.05547 13.0052 6.34837 12.7123L9 10.0607L11.6516 12.7123C11.9445 13.0052 12.4194 13.0052 12.7123 12.7123C13.0052 12.4194 13.0052 11.9446 12.7123 11.6517L10.0607 9.00003L12.7123 6.34836Z" fill="#8C8F98"/>
</svg>
